<mxfile host="app.diagrams.net" modified="2024-03-21T19:53:19.779Z" agent="Mozilla/5.0 (Windows NT 10.0; Win64; x64) AppleWebKit/537.36 (KHTML, like Gecko) Chrome/122.0.0.0 Safari/537.36" etag="5FWMEJ6r_eWUoE4J6mUY" version="24.0.2" type="device">
  <diagram id="C5RBs43oDa-KdzZeNtuy" name="Page-1">
    <mxGraphModel dx="1927" dy="1754" grid="1" gridSize="10" guides="1" tooltips="1" connect="1" arrows="1" fold="1" page="1" pageScale="1" pageWidth="827" pageHeight="1169" math="0" shadow="0">
      <root>
        <mxCell id="WIyWlLk6GJQsqaUBKTNV-0" />
        <mxCell id="WIyWlLk6GJQsqaUBKTNV-1" parent="WIyWlLk6GJQsqaUBKTNV-0" />
        <mxCell id="WIyWlLk6GJQsqaUBKTNV-2" value="" style="rounded=0;html=1;jettySize=auto;orthogonalLoop=1;fontSize=11;endArrow=block;endFill=0;endSize=8;strokeWidth=1;shadow=0;labelBackgroundColor=none;edgeStyle=orthogonalEdgeStyle;" parent="WIyWlLk6GJQsqaUBKTNV-1" target="WIyWlLk6GJQsqaUBKTNV-6" edge="1">
          <mxGeometry relative="1" as="geometry">
            <mxPoint x="220" y="150" as="sourcePoint" />
          </mxGeometry>
        </mxCell>
        <mxCell id="WIyWlLk6GJQsqaUBKTNV-4" value="Yes" style="rounded=0;html=1;jettySize=auto;orthogonalLoop=1;fontSize=11;endArrow=block;endFill=0;endSize=8;strokeWidth=1;shadow=0;labelBackgroundColor=none;edgeStyle=orthogonalEdgeStyle;" parent="WIyWlLk6GJQsqaUBKTNV-1" target="WIyWlLk6GJQsqaUBKTNV-10" edge="1">
          <mxGeometry y="20" relative="1" as="geometry">
            <mxPoint as="offset" />
            <mxPoint x="220" y="280" as="sourcePoint" />
          </mxGeometry>
        </mxCell>
        <mxCell id="WIyWlLk6GJQsqaUBKTNV-5" value="No" style="edgeStyle=orthogonalEdgeStyle;rounded=0;html=1;jettySize=auto;orthogonalLoop=1;fontSize=11;endArrow=block;endFill=0;endSize=8;strokeWidth=1;shadow=0;labelBackgroundColor=none;" parent="WIyWlLk6GJQsqaUBKTNV-1" target="WIyWlLk6GJQsqaUBKTNV-7" edge="1">
          <mxGeometry y="10" relative="1" as="geometry">
            <mxPoint as="offset" />
            <mxPoint x="270" y="240" as="sourcePoint" />
          </mxGeometry>
        </mxCell>
        <mxCell id="WIyWlLk6GJQsqaUBKTNV-8" value="No" style="rounded=0;html=1;jettySize=auto;orthogonalLoop=1;fontSize=11;endArrow=block;endFill=0;endSize=8;strokeWidth=1;shadow=0;labelBackgroundColor=none;edgeStyle=orthogonalEdgeStyle;" parent="WIyWlLk6GJQsqaUBKTNV-1" target="WIyWlLk6GJQsqaUBKTNV-11" edge="1">
          <mxGeometry x="0.3333" y="20" relative="1" as="geometry">
            <mxPoint as="offset" />
            <mxPoint x="220" y="370" as="sourcePoint" />
          </mxGeometry>
        </mxCell>
        <mxCell id="WIyWlLk6GJQsqaUBKTNV-9" value="Yes" style="edgeStyle=orthogonalEdgeStyle;rounded=0;html=1;jettySize=auto;orthogonalLoop=1;fontSize=11;endArrow=block;endFill=0;endSize=8;strokeWidth=1;shadow=0;labelBackgroundColor=none;" parent="WIyWlLk6GJQsqaUBKTNV-1" source="WIyWlLk6GJQsqaUBKTNV-10" edge="1">
          <mxGeometry y="10" relative="1" as="geometry">
            <mxPoint as="offset" />
            <mxPoint x="320" y="330" as="targetPoint" />
          </mxGeometry>
        </mxCell>
        <mxCell id="ZXpBEoS9UiDY2kDgBbUe-1" value="Inicio" style="ellipse;whiteSpace=wrap;html=1;aspect=fixed;" vertex="1" parent="WIyWlLk6GJQsqaUBKTNV-1">
          <mxGeometry x="360" y="-40" width="80" height="80" as="geometry" />
        </mxCell>
        <mxCell id="ZXpBEoS9UiDY2kDgBbUe-3" value="" style="endArrow=classic;html=1;rounded=0;" edge="1" parent="WIyWlLk6GJQsqaUBKTNV-1" source="ZXpBEoS9UiDY2kDgBbUe-1">
          <mxGeometry width="50" height="50" relative="1" as="geometry">
            <mxPoint x="390" y="200" as="sourcePoint" />
            <mxPoint x="400" y="60" as="targetPoint" />
          </mxGeometry>
        </mxCell>
        <mxCell id="ZXpBEoS9UiDY2kDgBbUe-4" value="Ingrese numero 1" style="rounded=0;whiteSpace=wrap;html=1;" vertex="1" parent="WIyWlLk6GJQsqaUBKTNV-1">
          <mxGeometry x="340" y="60" width="120" height="20" as="geometry" />
        </mxCell>
        <mxCell id="ZXpBEoS9UiDY2kDgBbUe-5" value="Definir con &quot;Ok&quot;" style="shape=parallelogram;perimeter=parallelogramPerimeter;whiteSpace=wrap;html=1;fixedSize=1;" vertex="1" parent="WIyWlLk6GJQsqaUBKTNV-1">
          <mxGeometry x="480" y="60" width="120" height="20" as="geometry" />
        </mxCell>
        <mxCell id="ZXpBEoS9UiDY2kDgBbUe-6" value="" style="endArrow=classic;html=1;rounded=0;exitX=1;exitY=0.5;exitDx=0;exitDy=0;entryX=0;entryY=0.5;entryDx=0;entryDy=0;" edge="1" parent="WIyWlLk6GJQsqaUBKTNV-1" source="ZXpBEoS9UiDY2kDgBbUe-4" target="ZXpBEoS9UiDY2kDgBbUe-5">
          <mxGeometry width="50" height="50" relative="1" as="geometry">
            <mxPoint x="460" y="140" as="sourcePoint" />
            <mxPoint x="510" y="90" as="targetPoint" />
          </mxGeometry>
        </mxCell>
        <mxCell id="ZXpBEoS9UiDY2kDgBbUe-8" value="Ingrese numero 2" style="rounded=0;whiteSpace=wrap;html=1;" vertex="1" parent="WIyWlLk6GJQsqaUBKTNV-1">
          <mxGeometry x="620" y="60" width="120" height="20" as="geometry" />
        </mxCell>
        <mxCell id="ZXpBEoS9UiDY2kDgBbUe-9" value="Definir con &quot;Ok&quot;" style="shape=parallelogram;perimeter=parallelogramPerimeter;whiteSpace=wrap;html=1;fixedSize=1;" vertex="1" parent="WIyWlLk6GJQsqaUBKTNV-1">
          <mxGeometry x="760" y="60" width="120" height="20" as="geometry" />
        </mxCell>
        <mxCell id="ZXpBEoS9UiDY2kDgBbUe-10" value="" style="endArrow=classic;html=1;rounded=0;exitX=1;exitY=0.5;exitDx=0;exitDy=0;entryX=0;entryY=0.5;entryDx=0;entryDy=0;" edge="1" parent="WIyWlLk6GJQsqaUBKTNV-1" source="ZXpBEoS9UiDY2kDgBbUe-8" target="ZXpBEoS9UiDY2kDgBbUe-9">
          <mxGeometry width="50" height="50" relative="1" as="geometry">
            <mxPoint x="740" y="140" as="sourcePoint" />
            <mxPoint x="790" y="90" as="targetPoint" />
          </mxGeometry>
        </mxCell>
        <mxCell id="ZXpBEoS9UiDY2kDgBbUe-11" value="" style="endArrow=classic;html=1;rounded=0;exitX=1;exitY=0.5;exitDx=0;exitDy=0;entryX=0;entryY=0.5;entryDx=0;entryDy=0;" edge="1" parent="WIyWlLk6GJQsqaUBKTNV-1">
          <mxGeometry width="50" height="50" relative="1" as="geometry">
            <mxPoint x="590" y="69.75" as="sourcePoint" />
            <mxPoint x="620" y="69.75" as="targetPoint" />
          </mxGeometry>
        </mxCell>
        <mxCell id="ZXpBEoS9UiDY2kDgBbUe-12" value="" style="endArrow=classic;html=1;rounded=0;exitX=0.5;exitY=1;exitDx=0;exitDy=0;" edge="1" parent="WIyWlLk6GJQsqaUBKTNV-1" source="ZXpBEoS9UiDY2kDgBbUe-9">
          <mxGeometry width="50" height="50" relative="1" as="geometry">
            <mxPoint x="620" y="140" as="sourcePoint" />
            <mxPoint x="400" y="100" as="targetPoint" />
            <Array as="points">
              <mxPoint x="820" y="90" />
              <mxPoint x="400" y="90" />
            </Array>
          </mxGeometry>
        </mxCell>
        <mxCell id="ZXpBEoS9UiDY2kDgBbUe-13" value="Seleccionar operaciÃ³n a realizar&amp;nbsp;" style="shape=parallelogram;perimeter=parallelogramPerimeter;whiteSpace=wrap;html=1;fixedSize=1;" vertex="1" parent="WIyWlLk6GJQsqaUBKTNV-1">
          <mxGeometry x="290" y="100" width="220" height="20" as="geometry" />
        </mxCell>
        <mxCell id="ZXpBEoS9UiDY2kDgBbUe-14" value="" style="endArrow=classic;html=1;rounded=0;exitX=0.5;exitY=1;exitDx=0;exitDy=0;" edge="1" parent="WIyWlLk6GJQsqaUBKTNV-1" source="ZXpBEoS9UiDY2kDgBbUe-13">
          <mxGeometry width="50" height="50" relative="1" as="geometry">
            <mxPoint x="420" y="130" as="sourcePoint" />
            <mxPoint x="400" y="140" as="targetPoint" />
          </mxGeometry>
        </mxCell>
        <mxCell id="ZXpBEoS9UiDY2kDgBbUe-15" value="1 para sumar" style="shape=parallelogram;perimeter=parallelogramPerimeter;whiteSpace=wrap;html=1;fixedSize=1;" vertex="1" parent="WIyWlLk6GJQsqaUBKTNV-1">
          <mxGeometry x="340" y="140" width="120" height="20" as="geometry" />
        </mxCell>
        <mxCell id="ZXpBEoS9UiDY2kDgBbUe-16" value="2 para restar" style="shape=parallelogram;perimeter=parallelogramPerimeter;whiteSpace=wrap;html=1;fixedSize=1;" vertex="1" parent="WIyWlLk6GJQsqaUBKTNV-1">
          <mxGeometry x="460" y="140" width="120" height="20" as="geometry" />
        </mxCell>
        <mxCell id="ZXpBEoS9UiDY2kDgBbUe-17" value="" style="endArrow=classic;html=1;rounded=0;exitX=1;exitY=0.5;exitDx=0;exitDy=0;" edge="1" parent="WIyWlLk6GJQsqaUBKTNV-1" source="ZXpBEoS9UiDY2kDgBbUe-15" target="ZXpBEoS9UiDY2kDgBbUe-16">
          <mxGeometry width="50" height="50" relative="1" as="geometry">
            <mxPoint x="451" y="150" as="sourcePoint" />
            <mxPoint x="451" y="170" as="targetPoint" />
          </mxGeometry>
        </mxCell>
        <mxCell id="ZXpBEoS9UiDY2kDgBbUe-18" value="3 para multiplicar" style="shape=parallelogram;perimeter=parallelogramPerimeter;whiteSpace=wrap;html=1;fixedSize=1;" vertex="1" parent="WIyWlLk6GJQsqaUBKTNV-1">
          <mxGeometry x="580" y="140" width="130" height="20" as="geometry" />
        </mxCell>
        <mxCell id="ZXpBEoS9UiDY2kDgBbUe-19" value="" style="endArrow=classic;html=1;rounded=0;exitX=1;exitY=0.5;exitDx=0;exitDy=0;entryX=0;entryY=0.5;entryDx=0;entryDy=0;" edge="1" parent="WIyWlLk6GJQsqaUBKTNV-1" target="ZXpBEoS9UiDY2kDgBbUe-18" source="ZXpBEoS9UiDY2kDgBbUe-16">
          <mxGeometry width="50" height="50" relative="1" as="geometry">
            <mxPoint x="570" y="150" as="sourcePoint" />
            <mxPoint x="571" y="170" as="targetPoint" />
          </mxGeometry>
        </mxCell>
        <mxCell id="ZXpBEoS9UiDY2kDgBbUe-20" value="4 para dividir" style="shape=parallelogram;perimeter=parallelogramPerimeter;whiteSpace=wrap;html=1;fixedSize=1;" vertex="1" parent="WIyWlLk6GJQsqaUBKTNV-1">
          <mxGeometry x="710" y="140" width="120" height="20" as="geometry" />
        </mxCell>
        <mxCell id="ZXpBEoS9UiDY2kDgBbUe-21" value="" style="endArrow=classic;html=1;rounded=0;entryX=0;entryY=0.5;entryDx=0;entryDy=0;" edge="1" parent="WIyWlLk6GJQsqaUBKTNV-1" target="ZXpBEoS9UiDY2kDgBbUe-20" source="ZXpBEoS9UiDY2kDgBbUe-18">
          <mxGeometry width="50" height="50" relative="1" as="geometry">
            <mxPoint x="700" y="150" as="sourcePoint" />
            <mxPoint x="720" y="150" as="targetPoint" />
          </mxGeometry>
        </mxCell>
        <mxCell id="ZXpBEoS9UiDY2kDgBbUe-22" value="" style="endArrow=classic;html=1;rounded=0;exitX=0.5;exitY=1;exitDx=0;exitDy=0;entryX=0.5;entryY=0;entryDx=0;entryDy=0;" edge="1" parent="WIyWlLk6GJQsqaUBKTNV-1" source="ZXpBEoS9UiDY2kDgBbUe-20" target="ZXpBEoS9UiDY2kDgBbUe-23">
          <mxGeometry width="50" height="50" relative="1" as="geometry">
            <mxPoint x="820" y="160" as="sourcePoint" />
            <mxPoint x="400" y="180" as="targetPoint" />
            <Array as="points">
              <mxPoint x="770" y="170" />
              <mxPoint x="400" y="170" />
            </Array>
          </mxGeometry>
        </mxCell>
        <mxCell id="ZXpBEoS9UiDY2kDgBbUe-23" value="5 para conocer el residuo de la divisiÃ³n" style="shape=parallelogram;perimeter=parallelogramPerimeter;whiteSpace=wrap;html=1;fixedSize=1;" vertex="1" parent="WIyWlLk6GJQsqaUBKTNV-1">
          <mxGeometry x="270" y="185" width="260" height="20" as="geometry" />
        </mxCell>
        <mxCell id="ZXpBEoS9UiDY2kDgBbUe-24" value="" style="endArrow=none;html=1;rounded=0;entryX=0.5;entryY=1;entryDx=0;entryDy=0;" edge="1" parent="WIyWlLk6GJQsqaUBKTNV-1">
          <mxGeometry width="50" height="50" relative="1" as="geometry">
            <mxPoint x="400" y="278" as="sourcePoint" />
            <mxPoint x="400" y="238" as="targetPoint" />
          </mxGeometry>
        </mxCell>
        <mxCell id="ZXpBEoS9UiDY2kDgBbUe-25" value="" style="endArrow=none;html=1;rounded=0;" edge="1" parent="WIyWlLk6GJQsqaUBKTNV-1">
          <mxGeometry width="50" height="50" relative="1" as="geometry">
            <mxPoint y="280" as="sourcePoint" />
            <mxPoint x="1120" y="278" as="targetPoint" />
            <Array as="points">
              <mxPoint x="400" y="278" />
            </Array>
          </mxGeometry>
        </mxCell>
        <mxCell id="ZXpBEoS9UiDY2kDgBbUe-26" value="" style="endArrow=classic;html=1;rounded=0;entryX=0.5;entryY=0;entryDx=0;entryDy=0;" edge="1" parent="WIyWlLk6GJQsqaUBKTNV-1" target="ZXpBEoS9UiDY2kDgBbUe-29">
          <mxGeometry width="50" height="50" relative="1" as="geometry">
            <mxPoint x="1120" y="278" as="sourcePoint" />
            <mxPoint x="1121" y="298" as="targetPoint" />
          </mxGeometry>
        </mxCell>
        <mxCell id="ZXpBEoS9UiDY2kDgBbUe-27" value="operaciÃ³n" style="shape=parallelogram;perimeter=parallelogramPerimeter;whiteSpace=wrap;html=1;fixedSize=1;" vertex="1" parent="WIyWlLk6GJQsqaUBKTNV-1">
          <mxGeometry x="320" y="220" width="160" height="20" as="geometry" />
        </mxCell>
        <mxCell id="ZXpBEoS9UiDY2kDgBbUe-28" value="" style="endArrow=classic;html=1;rounded=0;exitX=0.5;exitY=1;exitDx=0;exitDy=0;entryX=0.5;entryY=0;entryDx=0;entryDy=0;" edge="1" parent="WIyWlLk6GJQsqaUBKTNV-1" source="ZXpBEoS9UiDY2kDgBbUe-23" target="ZXpBEoS9UiDY2kDgBbUe-27">
          <mxGeometry width="50" height="50" relative="1" as="geometry">
            <mxPoint x="780" y="170" as="sourcePoint" />
            <mxPoint x="410" y="195" as="targetPoint" />
            <Array as="points" />
          </mxGeometry>
        </mxCell>
        <mxCell id="ZXpBEoS9UiDY2kDgBbUe-87" style="edgeStyle=orthogonalEdgeStyle;rounded=0;orthogonalLoop=1;jettySize=auto;html=1;entryX=1;entryY=0.5;entryDx=0;entryDy=0;" edge="1" parent="WIyWlLk6GJQsqaUBKTNV-1" source="ZXpBEoS9UiDY2kDgBbUe-29" target="ZXpBEoS9UiDY2kDgBbUe-80">
          <mxGeometry relative="1" as="geometry">
            <Array as="points">
              <mxPoint x="1121" y="610" />
            </Array>
          </mxGeometry>
        </mxCell>
        <mxCell id="ZXpBEoS9UiDY2kDgBbUe-29" value="&quot;Los datos ingresados no son validos&quot;" style="shape=parallelogram;perimeter=parallelogramPerimeter;whiteSpace=wrap;html=1;fixedSize=1;" vertex="1" parent="WIyWlLk6GJQsqaUBKTNV-1">
          <mxGeometry x="1001" y="300" width="240" height="20" as="geometry" />
        </mxCell>
        <mxCell id="ZXpBEoS9UiDY2kDgBbUe-30" value="&quot;Residuo&quot;" style="shape=parallelogram;perimeter=parallelogramPerimeter;whiteSpace=wrap;html=1;fixedSize=1;" vertex="1" parent="WIyWlLk6GJQsqaUBKTNV-1">
          <mxGeometry x="771" y="300" width="230" height="20" as="geometry" />
        </mxCell>
        <mxCell id="ZXpBEoS9UiDY2kDgBbUe-31" value="residuo = num1 MOD num2" style="rounded=0;whiteSpace=wrap;html=1;" vertex="1" parent="WIyWlLk6GJQsqaUBKTNV-1">
          <mxGeometry x="801" y="340" width="170" height="20" as="geometry" />
        </mxCell>
        <mxCell id="ZXpBEoS9UiDY2kDgBbUe-86" style="edgeStyle=orthogonalEdgeStyle;rounded=0;orthogonalLoop=1;jettySize=auto;html=1;entryX=1;entryY=0.5;entryDx=0;entryDy=0;" edge="1" parent="WIyWlLk6GJQsqaUBKTNV-1" source="ZXpBEoS9UiDY2kDgBbUe-32" target="ZXpBEoS9UiDY2kDgBbUe-80">
          <mxGeometry relative="1" as="geometry">
            <Array as="points">
              <mxPoint x="886" y="610" />
            </Array>
          </mxGeometry>
        </mxCell>
        <mxCell id="ZXpBEoS9UiDY2kDgBbUe-32" value="El residuo&amp;nbsp; de la divisiÃ³n es &quot;.residuo&quot;" style="shape=parallelogram;perimeter=parallelogramPerimeter;whiteSpace=wrap;html=1;fixedSize=1;" vertex="1" parent="WIyWlLk6GJQsqaUBKTNV-1">
          <mxGeometry x="771" y="380" width="230" height="20" as="geometry" />
        </mxCell>
        <mxCell id="ZXpBEoS9UiDY2kDgBbUe-60" value="" style="edgeStyle=orthogonalEdgeStyle;rounded=0;orthogonalLoop=1;jettySize=auto;html=1;" edge="1" parent="WIyWlLk6GJQsqaUBKTNV-1" source="ZXpBEoS9UiDY2kDgBbUe-33" target="ZXpBEoS9UiDY2kDgBbUe-36">
          <mxGeometry relative="1" as="geometry" />
        </mxCell>
        <mxCell id="ZXpBEoS9UiDY2kDgBbUe-33" value="&quot;Division&quot;" style="shape=parallelogram;perimeter=parallelogramPerimeter;whiteSpace=wrap;html=1;fixedSize=1;" vertex="1" parent="WIyWlLk6GJQsqaUBKTNV-1">
          <mxGeometry x="540" y="300" width="230" height="20" as="geometry" />
        </mxCell>
        <mxCell id="ZXpBEoS9UiDY2kDgBbUe-34" value="div = num1/num2" style="rounded=0;whiteSpace=wrap;html=1;" vertex="1" parent="WIyWlLk6GJQsqaUBKTNV-1">
          <mxGeometry x="570" y="340" width="170" height="20" as="geometry" />
        </mxCell>
        <mxCell id="ZXpBEoS9UiDY2kDgBbUe-84" style="edgeStyle=orthogonalEdgeStyle;rounded=0;orthogonalLoop=1;jettySize=auto;html=1;entryX=1;entryY=0.5;entryDx=0;entryDy=0;" edge="1" parent="WIyWlLk6GJQsqaUBKTNV-1" source="ZXpBEoS9UiDY2kDgBbUe-35" target="ZXpBEoS9UiDY2kDgBbUe-80">
          <mxGeometry relative="1" as="geometry" />
        </mxCell>
        <mxCell id="ZXpBEoS9UiDY2kDgBbUe-35" value="&quot;Error: numero 2 no puede se igual a 0&quot;" style="shape=parallelogram;perimeter=parallelogramPerimeter;whiteSpace=wrap;html=1;fixedSize=1;" vertex="1" parent="WIyWlLk6GJQsqaUBKTNV-1">
          <mxGeometry x="490" y="460" width="140" height="30" as="geometry" />
        </mxCell>
        <mxCell id="ZXpBEoS9UiDY2kDgBbUe-36" value="n&lt;font style=&quot;font-size: 12px;&quot;&gt;um2&lt;font style=&quot;font-size: 12px;&quot; face=&quot;Helvetica&quot;&gt;&amp;nbsp;&lt;span style=&quot;color: rgb(4, 12, 40); text-align: left;&quot;&gt;â  0&lt;/span&gt;&lt;/font&gt;&lt;/font&gt;" style="rhombus;whiteSpace=wrap;html=1;" vertex="1" parent="WIyWlLk6GJQsqaUBKTNV-1">
          <mxGeometry x="615" y="380" width="80" height="80" as="geometry" />
        </mxCell>
        <mxCell id="ZXpBEoS9UiDY2kDgBbUe-85" style="edgeStyle=orthogonalEdgeStyle;rounded=0;orthogonalLoop=1;jettySize=auto;html=1;entryX=1;entryY=0.5;entryDx=0;entryDy=0;" edge="1" parent="WIyWlLk6GJQsqaUBKTNV-1" source="ZXpBEoS9UiDY2kDgBbUe-37" target="ZXpBEoS9UiDY2kDgBbUe-80">
          <mxGeometry relative="1" as="geometry">
            <Array as="points">
              <mxPoint x="740" y="610" />
            </Array>
          </mxGeometry>
        </mxCell>
        <mxCell id="ZXpBEoS9UiDY2kDgBbUe-37" value="&quot;El resultado de la divisiÃ³n es: &quot;.div&quot;" style="shape=parallelogram;perimeter=parallelogramPerimeter;whiteSpace=wrap;html=1;fixedSize=1;" vertex="1" parent="WIyWlLk6GJQsqaUBKTNV-1">
          <mxGeometry x="670" y="460" width="140" height="30" as="geometry" />
        </mxCell>
        <mxCell id="ZXpBEoS9UiDY2kDgBbUe-38" value="&quot;MultiplicaciÃ³n&quot;" style="shape=parallelogram;perimeter=parallelogramPerimeter;whiteSpace=wrap;html=1;fixedSize=1;" vertex="1" parent="WIyWlLk6GJQsqaUBKTNV-1">
          <mxGeometry x="285" y="300" width="230" height="20" as="geometry" />
        </mxCell>
        <mxCell id="ZXpBEoS9UiDY2kDgBbUe-39" value="mult = num1*num2" style="rounded=0;whiteSpace=wrap;html=1;" vertex="1" parent="WIyWlLk6GJQsqaUBKTNV-1">
          <mxGeometry x="315" y="340" width="170" height="20" as="geometry" />
        </mxCell>
        <mxCell id="ZXpBEoS9UiDY2kDgBbUe-83" style="edgeStyle=orthogonalEdgeStyle;rounded=0;orthogonalLoop=1;jettySize=auto;html=1;entryX=0;entryY=0.5;entryDx=0;entryDy=0;" edge="1" parent="WIyWlLk6GJQsqaUBKTNV-1" source="ZXpBEoS9UiDY2kDgBbUe-40" target="ZXpBEoS9UiDY2kDgBbUe-80">
          <mxGeometry relative="1" as="geometry" />
        </mxCell>
        <mxCell id="ZXpBEoS9UiDY2kDgBbUe-40" value="&quot;El resultado de la multiplicaciÃ³n es &quot;.mult&quot;" style="shape=parallelogram;perimeter=parallelogramPerimeter;whiteSpace=wrap;html=1;fixedSize=1;" vertex="1" parent="WIyWlLk6GJQsqaUBKTNV-1">
          <mxGeometry x="320" y="380" width="160" height="30" as="geometry" />
        </mxCell>
        <mxCell id="ZXpBEoS9UiDY2kDgBbUe-47" value="&quot;Resta&quot;" style="shape=parallelogram;perimeter=parallelogramPerimeter;whiteSpace=wrap;html=1;fixedSize=1;" vertex="1" parent="WIyWlLk6GJQsqaUBKTNV-1">
          <mxGeometry x="110" y="300" width="160" height="20" as="geometry" />
        </mxCell>
        <mxCell id="ZXpBEoS9UiDY2kDgBbUe-48" value="resta = num1-num2" style="rounded=0;whiteSpace=wrap;html=1;" vertex="1" parent="WIyWlLk6GJQsqaUBKTNV-1">
          <mxGeometry x="105" y="340" width="170" height="20" as="geometry" />
        </mxCell>
        <mxCell id="ZXpBEoS9UiDY2kDgBbUe-82" style="edgeStyle=orthogonalEdgeStyle;rounded=0;orthogonalLoop=1;jettySize=auto;html=1;entryX=0;entryY=0.5;entryDx=0;entryDy=0;" edge="1" parent="WIyWlLk6GJQsqaUBKTNV-1" source="ZXpBEoS9UiDY2kDgBbUe-49" target="ZXpBEoS9UiDY2kDgBbUe-80">
          <mxGeometry relative="1" as="geometry">
            <Array as="points">
              <mxPoint x="190" y="610" />
            </Array>
          </mxGeometry>
        </mxCell>
        <mxCell id="ZXpBEoS9UiDY2kDgBbUe-49" value="&quot;El resultado de la resta es &quot;.resta&quot;" style="shape=parallelogram;perimeter=parallelogramPerimeter;whiteSpace=wrap;html=1;fixedSize=1;" vertex="1" parent="WIyWlLk6GJQsqaUBKTNV-1">
          <mxGeometry x="106.5" y="380" width="167" height="30" as="geometry" />
        </mxCell>
        <mxCell id="ZXpBEoS9UiDY2kDgBbUe-50" value="&quot;Suma&quot;" style="shape=parallelogram;perimeter=parallelogramPerimeter;whiteSpace=wrap;html=1;fixedSize=1;" vertex="1" parent="WIyWlLk6GJQsqaUBKTNV-1">
          <mxGeometry x="-60" y="300" width="130" height="20" as="geometry" />
        </mxCell>
        <mxCell id="ZXpBEoS9UiDY2kDgBbUe-51" value="suma = num1+num2" style="rounded=0;whiteSpace=wrap;html=1;" vertex="1" parent="WIyWlLk6GJQsqaUBKTNV-1">
          <mxGeometry x="-90" y="340" width="170" height="20" as="geometry" />
        </mxCell>
        <mxCell id="ZXpBEoS9UiDY2kDgBbUe-81" style="edgeStyle=orthogonalEdgeStyle;rounded=0;orthogonalLoop=1;jettySize=auto;html=1;entryX=0;entryY=0.5;entryDx=0;entryDy=0;" edge="1" parent="WIyWlLk6GJQsqaUBKTNV-1" source="ZXpBEoS9UiDY2kDgBbUe-52" target="ZXpBEoS9UiDY2kDgBbUe-80">
          <mxGeometry relative="1" as="geometry">
            <Array as="points">
              <mxPoint y="610" />
            </Array>
          </mxGeometry>
        </mxCell>
        <mxCell id="ZXpBEoS9UiDY2kDgBbUe-52" value="&quot;El resultado de la suma es &quot;.suma&quot;" style="shape=parallelogram;perimeter=parallelogramPerimeter;whiteSpace=wrap;html=1;fixedSize=1;" vertex="1" parent="WIyWlLk6GJQsqaUBKTNV-1">
          <mxGeometry x="-85" y="380" width="160" height="30" as="geometry" />
        </mxCell>
        <mxCell id="ZXpBEoS9UiDY2kDgBbUe-55" value="" style="endArrow=classic;html=1;rounded=0;entryX=0.5;entryY=0;entryDx=0;entryDy=0;" edge="1" parent="WIyWlLk6GJQsqaUBKTNV-1" target="ZXpBEoS9UiDY2kDgBbUe-30">
          <mxGeometry width="50" height="50" relative="1" as="geometry">
            <mxPoint x="886" y="280" as="sourcePoint" />
            <mxPoint x="900" y="300" as="targetPoint" />
            <Array as="points">
              <mxPoint x="886" y="290" />
            </Array>
          </mxGeometry>
        </mxCell>
        <mxCell id="ZXpBEoS9UiDY2kDgBbUe-56" value="" style="endArrow=classic;html=1;rounded=0;entryX=0.5;entryY=0;entryDx=0;entryDy=0;" edge="1" parent="WIyWlLk6GJQsqaUBKTNV-1">
          <mxGeometry width="50" height="50" relative="1" as="geometry">
            <mxPoint x="654.5" y="280" as="sourcePoint" />
            <mxPoint x="654.5" y="300" as="targetPoint" />
            <Array as="points">
              <mxPoint x="654.5" y="290" />
            </Array>
          </mxGeometry>
        </mxCell>
        <mxCell id="ZXpBEoS9UiDY2kDgBbUe-57" value="" style="endArrow=classic;html=1;rounded=0;entryX=0.5;entryY=0;entryDx=0;entryDy=0;" edge="1" parent="WIyWlLk6GJQsqaUBKTNV-1">
          <mxGeometry width="50" height="50" relative="1" as="geometry">
            <mxPoint x="654.8" y="320" as="sourcePoint" />
            <mxPoint x="654.8" y="340" as="targetPoint" />
            <Array as="points">
              <mxPoint x="654.8" y="330" />
            </Array>
          </mxGeometry>
        </mxCell>
        <mxCell id="ZXpBEoS9UiDY2kDgBbUe-58" value="" style="endArrow=classic;html=1;rounded=0;entryX=0.5;entryY=0;entryDx=0;entryDy=0;" edge="1" parent="WIyWlLk6GJQsqaUBKTNV-1">
          <mxGeometry width="50" height="50" relative="1" as="geometry">
            <mxPoint x="885.8" y="320" as="sourcePoint" />
            <mxPoint x="885.8" y="340" as="targetPoint" />
            <Array as="points">
              <mxPoint x="885.8" y="330" />
            </Array>
          </mxGeometry>
        </mxCell>
        <mxCell id="ZXpBEoS9UiDY2kDgBbUe-59" value="" style="endArrow=classic;html=1;rounded=0;entryX=0.5;entryY=0;entryDx=0;entryDy=0;" edge="1" parent="WIyWlLk6GJQsqaUBKTNV-1">
          <mxGeometry width="50" height="50" relative="1" as="geometry">
            <mxPoint x="885.8" y="360" as="sourcePoint" />
            <mxPoint x="885.8" y="380" as="targetPoint" />
            <Array as="points">
              <mxPoint x="885.8" y="370" />
            </Array>
          </mxGeometry>
        </mxCell>
        <mxCell id="ZXpBEoS9UiDY2kDgBbUe-63" value="" style="endArrow=classic;html=1;rounded=0;entryX=0.5;entryY=0;entryDx=0;entryDy=0;exitX=1;exitY=0.5;exitDx=0;exitDy=0;" edge="1" parent="WIyWlLk6GJQsqaUBKTNV-1" source="ZXpBEoS9UiDY2kDgBbUe-36" target="ZXpBEoS9UiDY2kDgBbUe-37">
          <mxGeometry width="50" height="50" relative="1" as="geometry">
            <mxPoint x="664.8" y="330" as="sourcePoint" />
            <mxPoint x="664.8" y="350" as="targetPoint" />
            <Array as="points">
              <mxPoint x="740" y="420" />
            </Array>
          </mxGeometry>
        </mxCell>
        <mxCell id="ZXpBEoS9UiDY2kDgBbUe-64" value="" style="endArrow=classic;html=1;rounded=0;entryX=0.5;entryY=0;entryDx=0;entryDy=0;exitX=0;exitY=0.5;exitDx=0;exitDy=0;" edge="1" parent="WIyWlLk6GJQsqaUBKTNV-1" source="ZXpBEoS9UiDY2kDgBbUe-36" target="ZXpBEoS9UiDY2kDgBbUe-35">
          <mxGeometry width="50" height="50" relative="1" as="geometry">
            <mxPoint x="705" y="430" as="sourcePoint" />
            <mxPoint x="750" y="460" as="targetPoint" />
            <Array as="points">
              <mxPoint x="560" y="420" />
            </Array>
          </mxGeometry>
        </mxCell>
        <mxCell id="ZXpBEoS9UiDY2kDgBbUe-65" value="" style="endArrow=classic;html=1;rounded=0;entryX=0.5;entryY=0;entryDx=0;entryDy=0;" edge="1" parent="WIyWlLk6GJQsqaUBKTNV-1">
          <mxGeometry width="50" height="50" relative="1" as="geometry">
            <mxPoint x="399.5" y="280" as="sourcePoint" />
            <mxPoint x="399.5" y="300" as="targetPoint" />
            <Array as="points">
              <mxPoint x="399.5" y="290" />
            </Array>
          </mxGeometry>
        </mxCell>
        <mxCell id="ZXpBEoS9UiDY2kDgBbUe-68" value="" style="endArrow=classic;html=1;rounded=0;entryX=0.5;entryY=0;entryDx=0;entryDy=0;" edge="1" parent="WIyWlLk6GJQsqaUBKTNV-1">
          <mxGeometry width="50" height="50" relative="1" as="geometry">
            <mxPoint x="399.5" y="320" as="sourcePoint" />
            <mxPoint x="399.5" y="340" as="targetPoint" />
            <Array as="points">
              <mxPoint x="399.5" y="330" />
            </Array>
          </mxGeometry>
        </mxCell>
        <mxCell id="ZXpBEoS9UiDY2kDgBbUe-71" value="" style="endArrow=classic;html=1;rounded=0;entryX=0.5;entryY=0;entryDx=0;entryDy=0;" edge="1" parent="WIyWlLk6GJQsqaUBKTNV-1">
          <mxGeometry width="50" height="50" relative="1" as="geometry">
            <mxPoint x="399.5" y="360" as="sourcePoint" />
            <mxPoint x="399.5" y="380" as="targetPoint" />
            <Array as="points">
              <mxPoint x="399.5" y="370" />
            </Array>
          </mxGeometry>
        </mxCell>
        <mxCell id="ZXpBEoS9UiDY2kDgBbUe-72" value="" style="endArrow=classic;html=1;rounded=0;entryX=0.5;entryY=0;entryDx=0;entryDy=0;" edge="1" parent="WIyWlLk6GJQsqaUBKTNV-1">
          <mxGeometry width="50" height="50" relative="1" as="geometry">
            <mxPoint x="189.5" y="280" as="sourcePoint" />
            <mxPoint x="189.5" y="300" as="targetPoint" />
            <Array as="points">
              <mxPoint x="189.5" y="290" />
            </Array>
          </mxGeometry>
        </mxCell>
        <mxCell id="ZXpBEoS9UiDY2kDgBbUe-74" value="" style="endArrow=classic;html=1;rounded=0;entryX=0.5;entryY=0;entryDx=0;entryDy=0;" edge="1" parent="WIyWlLk6GJQsqaUBKTNV-1">
          <mxGeometry width="50" height="50" relative="1" as="geometry">
            <mxPoint x="189.5" y="320" as="sourcePoint" />
            <mxPoint x="189.5" y="340" as="targetPoint" />
            <Array as="points">
              <mxPoint x="189.5" y="330" />
            </Array>
          </mxGeometry>
        </mxCell>
        <mxCell id="ZXpBEoS9UiDY2kDgBbUe-75" value="" style="endArrow=classic;html=1;rounded=0;entryX=0.5;entryY=0;entryDx=0;entryDy=0;" edge="1" parent="WIyWlLk6GJQsqaUBKTNV-1">
          <mxGeometry width="50" height="50" relative="1" as="geometry">
            <mxPoint x="189.5" y="360" as="sourcePoint" />
            <mxPoint x="189.5" y="380" as="targetPoint" />
            <Array as="points">
              <mxPoint x="189.5" y="370" />
            </Array>
          </mxGeometry>
        </mxCell>
        <mxCell id="ZXpBEoS9UiDY2kDgBbUe-76" value="" style="endArrow=classic;html=1;rounded=0;entryX=0.5;entryY=0;entryDx=0;entryDy=0;" edge="1" parent="WIyWlLk6GJQsqaUBKTNV-1">
          <mxGeometry width="50" height="50" relative="1" as="geometry">
            <mxPoint y="280" as="sourcePoint" />
            <mxPoint y="300" as="targetPoint" />
            <Array as="points">
              <mxPoint y="290" />
            </Array>
          </mxGeometry>
        </mxCell>
        <mxCell id="ZXpBEoS9UiDY2kDgBbUe-78" value="" style="endArrow=classic;html=1;rounded=0;entryX=0.5;entryY=0;entryDx=0;entryDy=0;" edge="1" parent="WIyWlLk6GJQsqaUBKTNV-1">
          <mxGeometry width="50" height="50" relative="1" as="geometry">
            <mxPoint y="320" as="sourcePoint" />
            <mxPoint y="340" as="targetPoint" />
            <Array as="points">
              <mxPoint y="330" />
            </Array>
          </mxGeometry>
        </mxCell>
        <mxCell id="ZXpBEoS9UiDY2kDgBbUe-79" value="" style="endArrow=classic;html=1;rounded=0;entryX=0.5;entryY=0;entryDx=0;entryDy=0;" edge="1" parent="WIyWlLk6GJQsqaUBKTNV-1">
          <mxGeometry width="50" height="50" relative="1" as="geometry">
            <mxPoint y="362" as="sourcePoint" />
            <mxPoint y="382" as="targetPoint" />
            <Array as="points">
              <mxPoint y="372" />
            </Array>
          </mxGeometry>
        </mxCell>
        <mxCell id="ZXpBEoS9UiDY2kDgBbUe-80" value="Final del algoritmo" style="ellipse;whiteSpace=wrap;html=1;aspect=fixed;" vertex="1" parent="WIyWlLk6GJQsqaUBKTNV-1">
          <mxGeometry x="435" y="570" width="80" height="80" as="geometry" />
        </mxCell>
      </root>
    </mxGraphModel>
  </diagram>
</mxfile>
